# xmcd
#
# Track frame offsets: 
#        182
#        17550
#        36547
#        56392
#        58520
#        76127
#        93687
#        97465
#        119195
#        139200
#        155782
#        173512
#        177587
#
# Disc length: 2636 seconds
#
# Revision: 7
# Processed by: cddbd v1.5.2PL0 Copyright (c) Steve Scherf et al.
# Submitted via: ExactAudioCopyFreeDBPlugin 1.0
#
DISCID=bc0a4a0d
DTITLE=Adina Howard - Do You Wanna Ride?
DYEAR=1995
DGENRE=R&B
TTITLE0=You Got Me Humpin'
TTITLE1=Freak Like Me
TTITLE2=If We Make Love Tonight
TTITLE3=I Wants Ta Eat
TTITLE4=You Can be My Nigga Feat. Yo-Yo
TTITLE5=It's All About You
TTITLE6=Let's Go to the Sugar Shack
TTITLE7=Do You Wanna Ride?
TTITLE8=You Don't Have to Cry (duet with Michael Speaks)
TTITLE9=My Up And Down
TTITLE10=Horny For Your Love
TTITLE11=Coollin' in the Studio
TTITLE12=Baby Come Over
EXTD=YEAR: 1995
EXTT0=
EXTT1=
EXTT2=
EXTT3=
EXTT4=
EXTT5=
EXTT6=
EXTT7=
EXTT8=
EXTT9=
EXTT10=
EXTT11=
EXTT12=
PLAYORDER=
